Coordinates
version=1
nRows=14
nColumns=24
inDegrees=yes

Units are S.I. units (second, meters, Newtons, ...)
Angles are in degrees.

endheader
time	pelvis_tilt	pelvis_list	pelvis_rotation	pelvis_tx	pelvis_ty	pelvis_tz	hip_flexion_r	hip_adduction_r	hip_rotation_r	knee_angle_r	ankle_angle_r	subtalar_angle_r	mtp_angle_r	hip_flexion_l	hip_adduction_l	hip_rotation_l	knee_angle_l	ankle_angle_l	subtalar_angle_l	mtp_angle_l	lumbar_extension	lumbar_bending	lumbar_rotation
      5.06000000	     38.91609589	     -2.16541682	      3.56371204	     -0.59859583	      0.65167154	     -0.23561910	    -53.63885147	      4.35742258	     -5.45714647	    -13.15201455	     26.00966167	     11.95064029	      0.00000000	    -14.02456192	     -5.37313098	     -8.61536942	     -4.16534785	      4.52527892	     15.42400770	      0.00000000	    -64.67172550	      2.11565438	      2.72431572
      5.06500000	     39.03223288	     -2.30518664	      3.24793849	     -0.59262342	      0.65166627	     -0.23631955	    -53.65782005	      4.00626628	     -5.47659942	    -14.48393821	     25.58196875	     12.25816005	      0.00000000	    -14.19722240	     -5.42680973	     -8.53664323	     -4.86726038	      4.20437607	     15.47982770	      0.00000000	    -64.70909914	      1.96029141	      2.52057404
      5.07000000	     39.14607315	     -2.50591117	      2.73719071	     -0.58656785	      0.65180867	     -0.23697995	    -53.59591566	      3.49624912	     -5.44517909	    -15.95079803	     25.12000692	     12.77608868	      0.00000000	    -14.43365300	     -5.47254683	     -8.67737333	     -5.62321376	      3.86985818	     15.49960440	      0.00000000	    -64.73791835	      1.68270636	      2.56636343
      5.07500000	     39.29923334	     -2.59913771	      2.41410974	     -0.58055354	      0.65198164	     -0.23771584	    -53.54203627	      3.07996057	     -5.50766012	    -17.49152931	     24.46122319	     13.04583709	      0.00000000	    -14.66277564	     -5.45877118	     -8.68534957	     -6.46581973	      3.48475445	     15.57764878	      0.00000000	    -64.81154357	      1.50835292	      2.30387188
      5.08000000	     39.44928366	     -2.71138198	      2.02195625	     -0.57453345	      0.65225724	     -0.23847188	    -53.40439574	      2.58934588	     -5.59362560	    -19.16055813	     23.72103032	     13.42528620	      0.00000000	    -14.91497759	     -5.42584970	     -8.74592931	     -7.34385523	      3.07958429	     15.56126339	      0.00000000	    -64.89122203	      1.29674909	      2.10233305
      5.08500000	     39.59464587	     -2.83445458	      1.51137405	     -0.56846639	      0.65264164	     -0.23922240	    -53.18776386	      1.98035363	     -5.65527763	    -20.93864076	     22.92458590	     13.85713104	      0.00000000	    -15.19897979	     -5.34381325	     -8.87722893	     -8.25851154	      2.70317734	     15.38226088	      0.00000000	    -64.95961618	      0.99220201	      2.06709759
      5.09000000	     39.77362615	     -2.88591968	      1.18898366	     -0.56246496	      0.65306980	     -0.24002375	    -52.96555933	      1.48773470	     -5.84744161	    -22.76989866	     21.88839983	     14.09272751	      0.00000000	    -15.47905373	     -5.24442329	     -8.87307159	     -9.20459784	      2.35720207	     15.31688421	      0.00000000	    -65.07601294	      0.80589459	      1.74691201
      5.09500000	     39.93851731	     -2.92854850	      0.83834947	     -0.55648498	      0.65357752	     -0.24088328	    -52.64948821	      0.93932824	     -6.06872715	    -24.70289200	     20.75414146	     14.33292530	      0.00000000	    -15.75665609	     -5.09968740	     -8.84070945	    -10.16029955	      2.04067661	     15.06934402	      0.00000000	    -65.18758136	      0.61033369	      1.45194052
      5.10000000	     40.06327056	     -2.95499691	      0.46542401	     -0.55053873	      0.65412782	     -0.24176976	    -52.20779515	      0.34962137	     -6.30441592	    -26.73446901	     19.56923358	     14.47969262	      0.00000000	    -15.98344813	     -4.89996357	     -8.71179470	    -11.15609937	      1.79874009	     14.52597528	      0.00000000	    -65.27243527	      0.38009930	      1.25101241
      5.10500000	     40.21319261	     -3.01206643	      0.17448639	     -0.54458825	      0.65471849	     -0.24250826	    -51.75031777	     -0.12282199	     -6.53273527	    -28.78062163	     18.18956509	     14.38716069	      0.00000000	    -16.20853583	     -4.77682303	     -8.62634499	    -12.21747474	      1.73902802	     14.13886071	      0.00000000	    -65.37625624	      0.21194286	      0.96652413
      5.11000000	     40.29193723	     -2.99065215	     -0.06151390	     -0.53878669	      0.65537101	     -0.24342902	    -51.13382475	     -0.62878003	     -6.87148101	    -30.90160383	     16.73122027	     14.18202475	      0.00000000	    -16.39082564	     -4.55530513	     -8.43532232	    -13.15947615	      1.65565245	     13.66336283	      0.00000000	    -65.44600674	      0.08075801	      0.60974222
      5.11500000	     40.35199746	     -2.94391375	     -0.23856597	     -0.53305850	      0.65606015	     -0.24438508	    -50.44170978	     -1.10520754	     -7.26420449	    -33.04325267	     15.19538374	     13.79964725	      0.00000000	    -16.54454973	     -4.31451025	     -8.16824183	    -14.10128141	      1.68857427	     13.12970747	      0.00000000	    -65.51719589	     -0.01787476	      0.22994963
      5.12000000	     40.21635467	     -2.92306214	     -0.24726575	     -0.52740733	      0.65665782	     -0.24549651	    -49.47138258	     -1.42849789	     -7.73868338	    -35.21968415	     13.60204952	     13.29230717	      0.00000000	    -16.40537381	     -4.14670385	     -7.66233007	    -15.14401346	      1.95259468	     12.58253934	      0.00000000	    -65.41375084	      0.05677091	     -0.16602891
      5.12500000	     40.33422923	     -2.81320882	     -0.44463157	     -0.52172693	      0.65750331	     -0.24642198	    -48.77483509	     -1.97269092	     -8.18081059	    -37.30640364	     12.02184789	     12.53218355	      0.00000000	    -16.71742039	     -3.81536162	     -7.45203513	    -15.92487727	      2.11895854	     12.08399859	      0.00000000	    -65.54493870	     -0.07795325	     -0.59769673
